STARTFONT 2.1
FONT -Adobe-ITC Souvenir-Demi-I-Normal--14-100-100-100-P-92-ISO8859-15
SIZE 10 100 100
FONTBOUNDINGBOX 18 18 -2 -3

STARTPROPERTIES 30
FOUNDRY "Adobe"
FAMILY_NAME "ITC Souvenir"
WEIGHT_NAME "Demi"
SLANT "I"
SETWIDTH_NAME "Normal"
ADD_STYLE_NAME ""
PIXEL_SIZE 14
POINT_SIZE 100
RESOLUTION_X 100
RESOLUTION_Y 100
SPACING "P"
AVERAGE_WIDTH 92
CHARSET_REGISTRY "ISO8859"
CHARSET_ENCODING "15"
CAP_HEIGHT 11
X_HEIGHT 7
FACE_NAME "ITC Souvenir Demi Italic"
COPYRIGHT "Copyright (c) 1984, 1987 Adobe Systems Incorporated. All Rights Reserved. Copyright (c) 1988, 1991 Digital Equipment Corporation. All Rights Reserved."
NOTICE "ITC Souvenir is a registered trademark of International Typeface Corporation.  "
_DEC_DEVICE_FONTNAMES "PS=Souvenir-DemiItalic"
_DEC_PRODUCTINFO "DECwindows Fonts V2.2, 07-Nov-1991"
RELATIVE_SETWIDTH 50
RELATIVE_WEIGHT 60
CHARSET_COLLECTIONS "ASCII ISO8859-1 ADOBE-STANDARD"
FULL_NAME "ITC Souvenir Demi Italic"
WEIGHT 10
QUAD_WIDTH 10
DEFAULT_CHAR 32
FONT_DESCENT 3
FONT_ASCENT 13
ENDPROPERTIES

CHARS 191

STARTCHAR space
ENCODING 32
SWIDTH 340 0
DWIDTH 5 0
BBX 1 1 0 0
BITMAP
00
ENDCHAR

STARTCHAR exclam
ENCODING 33
SWIDTH 380 0
DWIDTH 7 0
BBX 6 11 0 0
BITMAP
18
3C
3C
38
38
30
30
00
60
F0
60
ENDCHAR

STARTCHAR quotedbl
ENCODING 34
SWIDTH 580 0
DWIDTH 7 0
BBX 5 5 1 6
BITMAP
D8
D8
D8
90
90
ENDCHAR

STARTCHAR numbersign
ENCODING 35
SWIDTH 660 0
DWIDTH 9 0
BBX 9 11 0 0
BITMAP
1B00
1B00
1B00
7F80
3600
3600
3600
FF00
6C00
6C00
6C00
ENDCHAR

STARTCHAR dollar
ENCODING 36
SWIDTH 680 0
DWIDTH 9 0
BBX 8 14 0 -2
BITMAP
04
04
1E
3B
73
78
3C
1E
0E
CE
DC
78
20
20
ENDCHAR

STARTCHAR percent
ENCODING 37
SWIDTH 900 0
DWIDTH 14 0
BBX 13 11 0 0
BITMAP
3840
6CC0
CC80
CD80
DB00
7270
06D8
0598
0D98
09B0
18E0
ENDCHAR

STARTCHAR ampersand
ENCODING 38
SWIDTH 880 0
DWIDTH 14 0
BBX 13 11 0 0
BITMAP
0780
0CC0
18C0
1D80
0F00
1E78
7630
E760
E3C0
F380
7DE0
ENDCHAR

STARTCHAR quoteright
ENCODING 39
SWIDTH 320 0
DWIDTH 5 0
BBX 4 5 1 6
BITMAP
60
F0
60
40
80
ENDCHAR

STARTCHAR parenleft
ENCODING 40
SWIDTH 360 0
DWIDTH 6 0
BBX 6 13 0 -2
BITMAP
0C
18
30
60
60
C0
C0
C0
C0
C0
60
60
30
ENDCHAR

STARTCHAR parenright
ENCODING 41
SWIDTH 360 0
DWIDTH 6 0
BBX 6 13 -1 -2
BITMAP
30
18
18
0C
0C
0C
0C
0C
18
18
30
60
C0
ENDCHAR

STARTCHAR asterisk
ENCODING 42
SWIDTH 680 0
DWIDTH 10 0
BBX 7 7 1 4
BITMAP
18
18
D6
FE
30
D8
D8
ENDCHAR

STARTCHAR plus
ENCODING 43
SWIDTH 660 0
DWIDTH 9 0
BBX 8 8 0 1
BITMAP
18
18
18
FF
FF
18
18
18
ENDCHAR

STARTCHAR comma
ENCODING 44
SWIDTH 340 0
DWIDTH 5 0
BBX 4 5 0 -2
BITMAP
60
F0
60
40
80
ENDCHAR

STARTCHAR minus
ENCODING 45
SWIDTH 660 0
DWIDTH 9 0
BBX 8 2 0 4
BITMAP
FF
FF
ENDCHAR

STARTCHAR period
ENCODING 46
SWIDTH 340 0
DWIDTH 5 0
BBX 4 3 0 0
BITMAP
60
F0
60
ENDCHAR

STARTCHAR slash
ENCODING 47
SWIDTH 420 0
DWIDTH 6 0
BBX 7 12 -1 -1
BITMAP
06
04
0C
08
18
10
30
20
60
40
C0
80
ENDCHAR

STARTCHAR zero
ENCODING 48
SWIDTH 680 0
DWIDTH 9 0
BBX 8 11 0 0
BITMAP
1E
37
77
63
E3
E7
C7
C6
EE
EC
78
ENDCHAR

STARTCHAR one
ENCODING 49
SWIDTH 680 0
DWIDTH 9 0
BBX 6 11 1 0
BITMAP
1C
7C
18
38
38
38
30
70
70
70
F8
ENDCHAR

STARTCHAR two
ENCODING 50
SWIDTH 680 0
DWIDTH 9 0
BBX 8 11 0 0
BITMAP
3E
67
63
06
0E
1C
38
70
62
FE
FC
ENDCHAR

STARTCHAR three
ENCODING 51
SWIDTH 680 0
DWIDTH 9 0
BBX 8 11 0 0
BITMAP
1E
37
37
07
0E
3C
0E
0E
CE
DC
78
ENDCHAR

STARTCHAR four
ENCODING 52
SWIDTH 680 0
DWIDTH 9 0
BBX 8 11 0 0
BITMAP
07
0F
1F
36
26
4E
CE
FF
1C
1C
3E
ENDCHAR

STARTCHAR five
ENCODING 53
SWIDTH 680 0
DWIDTH 9 0
BBX 8 11 0 0
BITMAP
3F
3F
30
60
7C
4E
0E
0E
CE
DC
78
ENDCHAR

STARTCHAR six
ENCODING 54
SWIDTH 680 0
DWIDTH 9 0
BBX 8 11 0 0
BITMAP
07
1C
38
70
7C
E6
E7
E7
E6
6E
38
ENDCHAR

STARTCHAR seven
ENCODING 55
SWIDTH 680 0
DWIDTH 9 0
BBX 8 11 0 0
BITMAP
7F
FF
83
06
06
0C
1C
18
38
30
70
ENDCHAR

STARTCHAR eight
ENCODING 56
SWIDTH 680 0
DWIDTH 9 0
BBX 8 11 0 0
BITMAP
1E
33
73
72
3C
38
5C
CE
CE
CC
78
ENDCHAR

STARTCHAR nine
ENCODING 57
SWIDTH 680 0
DWIDTH 9 0
BBX 8 11 0 0
BITMAP
1C
76
67
E7
E7
E7
7E
0E
1C
38
E0
ENDCHAR

STARTCHAR colon
ENCODING 58
SWIDTH 320 0
DWIDTH 5 0
BBX 5 7 0 0
BITMAP
30
78
30
00
60
F0
60
ENDCHAR

STARTCHAR semicolon
ENCODING 59
SWIDTH 340 0
DWIDTH 5 0
BBX 5 9 0 -2
BITMAP
30
78
30
00
60
F0
60
40
80
ENDCHAR

STARTCHAR less
ENCODING 60
SWIDTH 660 0
DWIDTH 9 0
BBX 9 9 -1 0
BITMAP
0180
0780
1E00
7800
E000
7800
1C00
0700
0300
ENDCHAR

STARTCHAR equal
ENCODING 61
SWIDTH 660 0
DWIDTH 9 0
BBX 8 5 0 2
BITMAP
FF
FF
00
FF
FF
ENDCHAR

STARTCHAR greater
ENCODING 62
SWIDTH 660 0
DWIDTH 9 0
BBX 9 9 0 0
BITMAP
6000
7800
1C00
0700
0380
0F00
3C00
F000
C000
ENDCHAR

STARTCHAR question
ENCODING 63
SWIDTH 520 0
DWIDTH 9 0
BBX 8 11 0 0
BITMAP
3E
67
67
07
0E
18
30
00
60
F0
60
ENDCHAR

STARTCHAR at
ENCODING 64
SWIDTH 860 0
DWIDTH 14 0
BBX 11 11 1 0
BITMAP
0F80
3040
4DA0
5BA0
99A0
B320
B740
9B80
4020
60C0
1F00
ENDCHAR

STARTCHAR A
ENCODING 65
SWIDTH 760 0
DWIDTH 11 0
BBX 11 11 -1 0
BITMAP
0600
0600
0F00
0B00
1B00
1380
3F80
2180
61C0
41C0
E3E0
ENDCHAR

STARTCHAR B
ENCODING 66
SWIDTH 780 0
DWIDTH 11 0
BBX 10 11 0 0
BITMAP
3F80
1CC0
18C0
18C0
3980
3F00
39C0
31C0
71C0
7380
FE00
ENDCHAR

STARTCHAR C
ENCODING 67
SWIDTH 780 0
DWIDTH 11 0
BBX 10 11 0 0
BITMAP
0FC0
38C0
7080
7000
E000
E000
E000
E000
7080
7180
1F00
ENDCHAR

STARTCHAR D
ENCODING 68
SWIDTH 860 0
DWIDTH 13 0
BBX 12 11 0 0
BITMAP
3FC0
1CE0
1C60
1870
3870
3870
3870
30E0
70E0
71C0
FF00
ENDCHAR

STARTCHAR E
ENCODING 69
SWIDTH 700 0
DWIDTH 11 0
BBX 10 11 0 0
BITMAP
3FC0
1CC0
1840
1800
3900
3F00
3900
3000
3080
7180
FF80
ENDCHAR

STARTCHAR F
ENCODING 70
SWIDTH 640 0
DWIDTH 11 0
BBX 10 11 0 0
BITMAP
3FC0
1CC0
1840
1800
3900
3F00
3900
3000
7000
7000
F800
ENDCHAR

STARTCHAR G
ENCODING 71
SWIDTH 820 0
DWIDTH 11 0
BBX 10 11 0 0
BITMAP
0FC0
38C0
3080
7000
6000
E7C0
E1C0
E1C0
E180
7380
3F00
ENDCHAR

STARTCHAR H
ENCODING 72
SWIDTH 880 0
DWIDTH 14 0
BBX 13 11 0 0
BITMAP
3EF8
1C70
1860
1860
38E0
3FE0
38E0
30C0
30C0
71C0
FBE0
ENDCHAR

STARTCHAR I
ENCODING 73
SWIDTH 400 0
DWIDTH 6 0
BBX 7 11 -1 0
BITMAP
3E
1C
18
18
38
38
30
30
70
70
F8
ENDCHAR

STARTCHAR J
ENCODING 74
SWIDTH 600 0
DWIDTH 8 0
BBX 10 11 -2 0
BITMAP
07C0
0380
0300
0300
0700
0700
0700
0600
C600
CE00
7800
ENDCHAR

STARTCHAR K
ENCODING 75
SWIDTH 780 0
DWIDTH 12 0
BBX 12 11 0 0
BITMAP
3E70
1C60
18C0
1980
3B00
3F00
3B00
3380
7180
71C0
F9E0
ENDCHAR

STARTCHAR L
ENCODING 76
SWIDTH 660 0
DWIDTH 9 0
BBX 8 11 0 0
BITMAP
3E
1C
18
18
38
38
30
30
71
73
FF
ENDCHAR

STARTCHAR M
ENCODING 77
SWIDTH 960 0
DWIDTH 14 0
BBX 15 11 -1 0
BITMAP
3E3E
1E3C
1E7C
1658
3698
27B8
2730
6730
4670
4070
E0F8
ENDCHAR

STARTCHAR N
ENCODING 78
SWIDTH 800 0
DWIDTH 13 0
BBX 12 11 0 0
BITMAP
3870
1C20
1C20
3E60
2E40
2740
2740
63C0
4380
4180
E180
ENDCHAR

STARTCHAR O
ENCODING 79
SWIDTH 860 0
DWIDTH 12 0
BBX 11 11 0 0
BITMAP
0F00
39C0
30C0
70E0
60E0
E0E0
E0C0
E1C0
6180
7380
1E00
ENDCHAR

STARTCHAR P
ENCODING 80
SWIDTH 720 0
DWIDTH 11 0
BBX 11 11 0 0
BITMAP
3FC0
1CE0
18E0
18E0
39C0
3B80
3E00
3000
7000
7000
F800
ENDCHAR

STARTCHAR Q
ENCODING 81
SWIDTH 880 0
DWIDTH 12 0
BBX 11 13 0 -2
BITMAP
0F00
39C0
30E0
70E0
60E0
E0E0
E0C0
E1C0
6580
7780
3E00
03C0
01C0
ENDCHAR

STARTCHAR R
ENCODING 82
SWIDTH 780 0
DWIDTH 11 0
BBX 11 11 -1 0
BITMAP
3FC0
1CE0
18E0
18E0
38C0
3980
3F00
3300
7180
71C0
F9E0
ENDCHAR

STARTCHAR S
ENCODING 83
SWIDTH 680 0
DWIDTH 10 0
BBX 8 11 0 0
BITMAP
1E
33
61
70
7C
3E
0F
07
43
E6
7C
ENDCHAR

STARTCHAR T
ENCODING 84
SWIDTH 660 0
DWIDTH 9 0
BBX 9 11 0 0
BITMAP
FF80
DD80
9880
1800
3800
3800
3000
3000
7000
7000
F800
ENDCHAR

STARTCHAR U
ENCODING 85
SWIDTH 800 0
DWIDTH 11 0
BBX 11 11 0 0
BITMAP
7CE0
3840
3840
30C0
7080
7080
6180
E100
E100
F300
7E00
ENDCHAR

STARTCHAR V
ENCODING 86
SWIDTH 720 0
DWIDTH 10 0
BBX 10 11 0 0
BITMAP
F9C0
7080
7080
7100
3100
3A00
3A00
3C00
1C00
1800
1800
ENDCHAR

STARTCHAR W
ENCODING 87
SWIDTH 1020 0
DWIDTH 15 0
BBX 16 11 0 0
BITMAP
FBE7
6182
6184
71C4
73C8
73C8
34D0
3CF0
38E0
38E0
30C0
ENDCHAR

STARTCHAR X
ENCODING 88
SWIDTH 740 0
DWIDTH 11 0
BBX 12 11 -1 0
BITMAP
7CF0
3860
1CC0
0D80
0F00
0700
0F80
1B80
31C0
60E0
E1F0
ENDCHAR

STARTCHAR Y
ENCODING 89
SWIDTH 740 0
DWIDTH 11 0
BBX 11 11 0 0
BITMAP
F9E0
70C0
3180
3B00
1E00
1C00
1C00
1800
1800
3800
7C00
ENDCHAR

STARTCHAR Z
ENCODING 90
SWIDTH 620 0
DWIDTH 11 0
BBX 10 11 0 0
BITMAP
7FC0
6380
4700
0700
0E00
1C00
3800
3800
7080
E180
FF80
ENDCHAR

STARTCHAR bracketleft
ENCODING 91
SWIDTH 340 0
DWIDTH 5 0
BBX 5 13 0 -2
BITMAP
38
30
30
30
60
60
60
60
C0
C0
C0
C0
E0
ENDCHAR

STARTCHAR backslash
ENCODING 92
SWIDTH 660 0
DWIDTH 10 0
BBX 7 12 1 -1
BITMAP
C0
C0
60
60
30
30
18
18
0C
0C
06
06
ENDCHAR

STARTCHAR bracketright
ENCODING 93
SWIDTH 340 0
DWIDTH 5 0
BBX 5 13 -1 -2
BITMAP
38
18
18
18
30
30
30
30
60
60
60
60
E0
ENDCHAR

STARTCHAR asciicircum
ENCODING 94
SWIDTH 660 0
DWIDTH 9 0
BBX 7 8 0 3
BITMAP
10
38
38
6C
6C
44
C6
C6
ENDCHAR

STARTCHAR underscore
ENCODING 95
SWIDTH 500 0
DWIDTH 7 0
BBX 7 2 0 -3
BITMAP
FE
FE
ENDCHAR

STARTCHAR quoteleft
ENCODING 96
SWIDTH 320 0
DWIDTH 5 0
BBX 4 5 0 6
BITMAP
10
20
60
F0
60
ENDCHAR

STARTCHAR a
ENCODING 97
SWIDTH 640 0
DWIDTH 10 0
BBX 9 7 0 0
BITMAP
3B80
7700
E300
E300
C600
EE80
7700
ENDCHAR

STARTCHAR b
ENCODING 98
SWIDTH 640 0
DWIDTH 10 0
BBX 9 11 0 0
BITMAP
3800
7800
3000
3000
3600
7B00
7380
6380
E700
E700
DC00
ENDCHAR

STARTCHAR c
ENCODING 99
SWIDTH 540 0
DWIDTH 9 0
BBX 8 7 0 0
BITMAP
3E
77
E3
C0
C0
E6
7C
ENDCHAR

STARTCHAR d
ENCODING 100
SWIDTH 680 0
DWIDTH 10 0
BBX 10 11 0 0
BITMAP
00C0
03C0
0180
0180
3D80
7780
E300
C700
C600
EE80
7700
ENDCHAR

STARTCHAR e
ENCODING 101
SWIDTH 580 0
DWIDTH 9 0
BBX 8 7 0 0
BITMAP
3E
77
E3
FE
C0
C6
7C
ENDCHAR

STARTCHAR f
ENCODING 102
SWIDTH 420 0
DWIDTH 5 0
BBX 8 14 -2 -3
BITMAP
07
07
0C
0C
3E
1C
18
18
18
38
30
30
E0
C0
ENDCHAR

STARTCHAR g
ENCODING 103
SWIDTH 600 0
DWIDTH 9 0
BBX 10 10 -1 -3
BITMAP
1FC0
3B00
7180
6380
7700
3E00
0300
C300
C700
7E00
ENDCHAR

STARTCHAR h
ENCODING 104
SWIDTH 680 0
DWIDTH 10 0
BBX 9 11 0 0
BITMAP
3800
7800
3000
3000
3700
3B80
7380
7300
6300
E780
E700
ENDCHAR

STARTCHAR i
ENCODING 105
SWIDTH 340 0
DWIDTH 5 0
BBX 5 10 0 0
BITMAP
38
38
00
70
F0
60
60
60
F0
E0
ENDCHAR

STARTCHAR j
ENCODING 106
SWIDTH 340 0
DWIDTH 5 0
BBX 7 13 -2 -3
BITMAP
0E
0E
00
1C
3C
1C
18
18
38
38
30
F0
C0
ENDCHAR

STARTCHAR k
ENCODING 107
SWIDTH 600 0
DWIDTH 9 0
BBX 8 11 0 0
BITMAP
38
78
30
30
33
37
7C
7C
6E
E6
E7
ENDCHAR

STARTCHAR l
ENCODING 108
SWIDTH 360 0
DWIDTH 5 0
BBX 5 11 0 0
BITMAP
38
78
30
30
30
70
70
60
60
F0
E0
ENDCHAR

STARTCHAR m
ENCODING 109
SWIDTH 980 0
DWIDTH 15 0
BBX 14 7 0 0
BITMAP
7738
FBDC
739C
739C
6318
E73C
E738
ENDCHAR

STARTCHAR n
ENCODING 110
SWIDTH 680 0
DWIDTH 10 0
BBX 9 7 0 0
BITMAP
7700
FB80
7380
6300
6300
E780
E700
ENDCHAR

STARTCHAR o
ENCODING 111
SWIDTH 640 0
DWIDTH 9 0
BBX 8 7 0 0
BITMAP
3E
77
E3
C3
C7
EE
7C
ENDCHAR

STARTCHAR p
ENCODING 112
SWIDTH 660 0
DWIDTH 10 0
BBX 10 10 -1 -3
BITMAP
3B80
7DC0
38C0
39C0
31C0
3380
7600
7000
7000
F800
ENDCHAR

STARTCHAR q
ENCODING 113
SWIDTH 640 0
DWIDTH 10 0
BBX 9 10 0 -3
BITMAP
3D80
7780
E380
E700
C700
EF00
7600
0600
0E00
1F00
ENDCHAR

STARTCHAR r
ENCODING 114
SWIDTH 460 0
DWIDTH 7 0
BBX 7 7 0 0
BITMAP
76
FE
70
60
60
E0
E0
ENDCHAR

STARTCHAR s
ENCODING 115
SWIDTH 520 0
DWIDTH 7 0
BBX 7 7 -1 0
BITMAP
3E
62
78
3C
1E
C6
7C
ENDCHAR

STARTCHAR t
ENCODING 116
SWIDTH 420 0
DWIDTH 5 0
BBX 5 10 0 0
BITMAP
10
10
30
F8
70
60
60
E0
E8
F0
ENDCHAR

STARTCHAR u
ENCODING 117
SWIDTH 680 0
DWIDTH 10 0
BBX 9 7 0 0
BITMAP
7380
F380
6300
E700
C700
EF80
7300
ENDCHAR

STARTCHAR v
ENCODING 118
SWIDTH 580 0
DWIDTH 8 0
BBX 7 7 0 0
BITMAP
76
F2
62
66
E4
EC
78
ENDCHAR

STARTCHAR w
ENCODING 119
SWIDTH 840 0
DWIDTH 13 0
BBX 12 7 0 0
BITMAP
73B0
F390
6310
6730
E720
EF60
79C0
ENDCHAR

STARTCHAR x
ENCODING 120
SWIDTH 580 0
DWIDTH 9 0
BBX 8 7 0 0
BITMAP
33
77
3C
18
3C
EF
CE
ENDCHAR

STARTCHAR y
ENCODING 121
SWIDTH 560 0
DWIDTH 8 0
BBX 7 10 0 -3
BITMAP
66
E6
62
72
74
3C
38
08
70
60
ENDCHAR

STARTCHAR z
ENCODING 122
SWIDTH 500 0
DWIDTH 8 0
BBX 7 7 0 0
BITMAP
7E
CE
1C
38
70
E6
FC
ENDCHAR

STARTCHAR braceleft
ENCODING 123
SWIDTH 340 0
DWIDTH 5 0
BBX 5 13 0 -2
BITMAP
18
30
30
30
20
60
C0
60
60
C0
C0
C0
60
ENDCHAR

STARTCHAR bar
ENCODING 124
SWIDTH 660 0
DWIDTH 10 0
BBX 1 11 4 0
BITMAP
80
80
80
80
80
80
80
80
80
80
80
ENDCHAR

STARTCHAR braceright
ENCODING 125
SWIDTH 340 0
DWIDTH 6 0
BBX 6 13 -1 -2
BITMAP
30
18
18
18
18
18
0C
30
30
60
60
60
C0
ENDCHAR

STARTCHAR asciitilde
ENCODING 126
SWIDTH 660 0
DWIDTH 9 0
BBX 9 3 0 4
BITMAP
3980
7F00
CE00
ENDCHAR

STARTCHAR space
ENCODING 160
SWIDTH 340 0
DWIDTH 5 0
BBX 1 1 0 0
BITMAP
00
ENDCHAR

STARTCHAR exclamdown
ENCODING 161
SWIDTH 380 0
DWIDTH 7 0
BBX 6 10 0 -3
BITMAP
18
3C
18
00
30
70
70
F0
F0
60
ENDCHAR

STARTCHAR cent
ENCODING 162
SWIDTH 660 0
DWIDTH 9 0
BBX 9 11 0 0
BITMAP
0400
0400
1F00
7380
E180
E000
E000
F300
7E00
1000
1000
ENDCHAR

STARTCHAR sterling
ENCODING 163
SWIDTH 660 0
DWIDTH 9 0
BBX 8 11 0 0
BITMAP
0E
1B
1B
30
30
7E
30
30
71
FF
8E
ENDCHAR

STARTCHAR EuroSign
ENCODING 164
SWIDTH 499 0
DWIDTH 7 0
BBX 9 10 0 0
BITMAP
0F80
1900
3000
FC00
6000
F800
6000
6000
6600
3800
ENDCHAR

STARTCHAR yen
ENCODING 165
SWIDTH 680 0
DWIDTH 9 0
BBX 10 11 0 0
BITMAP
FBC0
7180
3300
3200
1E00
FF80
1800
FF00
1800
3800
7C00
ENDCHAR

STARTCHAR Scaron
ENCODING 166
SWIDTH 680 0
DWIDTH 10 0
BBX 8 15 0 0
BITMAP
36
1C
08
00
1E
33
61
70
7C
3E
0F
07
43
E6
7C
ENDCHAR

STARTCHAR section
ENCODING 167
SWIDTH 680 0
DWIDTH 11 0
BBX 10 13 0 -2
BITMAP
0F80
18C0
3840
3C00
1F00
2780
6180
7900
3E00
0F00
8700
C600
7C00
ENDCHAR

STARTCHAR scaron
ENCODING 168
SWIDTH 520 0
DWIDTH 7 0
BBX 7 11 -1 0
BITMAP
36
1C
08
00
3E
62
78
3C
1E
C6
7C
ENDCHAR

STARTCHAR copyright
ENCODING 169
SWIDTH 840 0
DWIDTH 14 0
BBX 13 13 0 -1
BITMAP
0700
18C0
2020
4790
4CD0
9848
9808
9848
4CD0
4790
2020
18C0
0700
ENDCHAR

STARTCHAR ordfeminine
ENCODING 170
SWIDTH 440 0
DWIDTH 8 0
BBX 7 8 0 3
BITMAP
36
6E
C6
CC
DC
6E
00
FC
ENDCHAR

STARTCHAR guillemotleft
ENCODING 171
SWIDTH 460 0
DWIDTH 8 0
BBX 7 6 0 1
BITMAP
12
36
6C
D8
6C
24
ENDCHAR

STARTCHAR logicalnot
ENCODING 172
SWIDTH 660 0
DWIDTH 9 0
BBX 8 5 0 2
BITMAP
FF
FF
03
03
03
ENDCHAR

STARTCHAR hyphen
ENCODING 173
SWIDTH 300 0
DWIDTH 5 0
BBX 4 2 0 4
BITMAP
F0
F0
ENDCHAR

STARTCHAR registered
ENCODING 174
SWIDTH 840 0
DWIDTH 14 0
BBX 13 13 0 -1
BITMAP
0700
18C0
2020
5F10
4990
8888
8988
8F08
4990
5CD0
2020
18C0
0700
ENDCHAR

STARTCHAR macron
ENCODING 175
SWIDTH 480 0
DWIDTH 7 0
BBX 5 1 1 8
BITMAP
F8
ENDCHAR

STARTCHAR degree
ENCODING 176
SWIDTH 400 0
DWIDTH 6 0
BBX 4 4 1 7
BITMAP
60
90
90
60
ENDCHAR

STARTCHAR plusminus
ENCODING 177
SWIDTH 660 0
DWIDTH 9 0
BBX 8 9 0 0
BITMAP
18
18
FF
FF
18
18
00
FF
FF
ENDCHAR

STARTCHAR twosuperior
ENCODING 178
SWIDTH 408 0
DWIDTH 5 0
BBX 5 6 0 5
BITMAP
70
D8
18
70
C0
F8
ENDCHAR

STARTCHAR threesuperior
ENCODING 179
SWIDTH 408 0
DWIDTH 5 0
BBX 5 6 0 5
BITMAP
78
98
30
18
98
F0
ENDCHAR

STARTCHAR Zcaron
ENCODING 180
SWIDTH 620 0
DWIDTH 11 0
BBX 10 15 0 0
BITMAP
1B00
0E00
0400
0000
7FC0
6380
4700
0700
0E00
1C00
3800
3800
7080
E180
FF80
ENDCHAR

STARTCHAR mu
ENCODING 181
SWIDTH 680 0
DWIDTH 10 0
BBX 10 10 -1 -3
BITMAP
39C0
79C0
3180
3380
7300
6780
7B00
C000
E000
C000
ENDCHAR

STARTCHAR paragraph
ENCODING 182
SWIDTH 660 0
DWIDTH 11 0
BBX 12 13 0 -2
BITMAP
3FF0
66C0
C6C0
C480
C480
CC80
7D80
0D80
0900
0900
0900
1B00
1B00
ENDCHAR

STARTCHAR periodcentered
ENCODING 183
SWIDTH 340 0
DWIDTH 5 0
BBX 4 3 0 4
BITMAP
60
F0
60
ENDCHAR

STARTCHAR zcaron
ENCODING 184
SWIDTH 500 0
DWIDTH 8 0
BBX 7 11 0 0
BITMAP
36
1C
08
00
7E
CE
1C
38
70
E6
FC
ENDCHAR

STARTCHAR onesuperior
ENCODING 185
SWIDTH 408 0
DWIDTH 5 0
BBX 4 6 0 5
BITMAP
30
70
30
60
60
F0
ENDCHAR

STARTCHAR ordmasculine
ENCODING 186
SWIDTH 440 0
DWIDTH 9 0
BBX 8 8 0 3
BITMAP
1E
33
63
63
66
3C
00
FE
ENDCHAR

STARTCHAR guillemotright
ENCODING 187
SWIDTH 460 0
DWIDTH 8 0
BBX 7 6 0 1
BITMAP
48
6C
36
6C
D8
90
ENDCHAR

STARTCHAR Ligature_OE
ENCODING 188
SWIDTH 1100 0
DWIDTH 16 0
BBX 15 11 0 0
BITMAP
0EFE
39E6
70E2
71C0
E1C4
E1FC
E1C4
E380
E384
738C
3FFC
ENDCHAR

STARTCHAR Ligature_oe
ENCODING 189
SWIDTH 1000 0
DWIDTH 14 0
BBX 13 7 0 0
BITMAP
1EF0
77B8
E738
E7F0
E700
EF30
7BE0
ENDCHAR

STARTCHAR Ydiaeresis
ENCODING 190
SWIDTH 740 0
DWIDTH 11 0
BBX 11 14 0 0
BITMAP
0D80
0D80
0000
F9E0
70C0
3180
3B00
1E00
1C00
1C00
1800
1800
3800
7C00
ENDCHAR

STARTCHAR questiondown
ENCODING 191
SWIDTH 520 0
DWIDTH 9 0
BBX 8 10 0 -3
BITMAP
06
0F
06
00
18
70
E0
E6
E6
7C
ENDCHAR

STARTCHAR Agrave
ENCODING 192
SWIDTH 760 0
DWIDTH 11 0
BBX 11 15 -1 0
BITMAP
0E00
0700
0180
0000
0600
0600
0F00
0B00
1B00
1380
3F80
2180
61C0
41C0
E3E0
ENDCHAR

STARTCHAR Aacute
ENCODING 193
SWIDTH 760 0
DWIDTH 11 0
BBX 11 15 -1 0
BITMAP
01C0
0380
0600
0000
0600
0600
0F00
0B00
1B00
1380
3F80
2180
61C0
41C0
E3E0
ENDCHAR

STARTCHAR Acircumflex
ENCODING 194
SWIDTH 760 0
DWIDTH 11 0
BBX 11 15 -1 0
BITMAP
0200
0700
0D80
0000
0600
0600
0F00
0B00
1B00
1380
3F80
2180
61C0
41C0
E3E0
ENDCHAR

STARTCHAR Atilde
ENCODING 195
SWIDTH 760 0
DWIDTH 11 0
BBX 11 14 -1 0
BITMAP
0680
0B00
0000
0600
0600
0F00
0B00
1B00
1380
3F80
2180
61C0
41C0
E3E0
ENDCHAR

STARTCHAR Adieresis
ENCODING 196
SWIDTH 760 0
DWIDTH 11 0
BBX 11 14 -1 0
BITMAP
0D80
0D80
0000
0600
0600
0F00
0B00
1B00
1380
3F80
2180
61C0
41C0
E3E0
ENDCHAR

STARTCHAR Aring
ENCODING 197
SWIDTH 760 0
DWIDTH 11 0
BBX 11 15 -1 0
BITMAP
0600
0900
0900
0600
0600
0700
0F00
0B00
1B00
1380
3F80
21C0
61C0
41C0
E3E0
ENDCHAR

STARTCHAR AE
ENCODING 198
SWIDTH 1000 0
DWIDTH 15 0
BBX 15 11 -1 0
BITMAP
03FE
06E6
04C2
0CC0
19C8
11F8
3FC8
2180
6384
438C
E7FC
ENDCHAR

STARTCHAR Ccedilla
ENCODING 199
SWIDTH 780 0
DWIDTH 11 0
BBX 10 14 0 -3
BITMAP
0FC0
38C0
7080
7000
E000
E000
E000
E000
7080
7180
1F00
0800
0400
1C00
ENDCHAR

STARTCHAR Egrave
ENCODING 200
SWIDTH 700 0
DWIDTH 11 0
BBX 10 15 0 0
BITMAP
1C00
0E00
0300
0000
3FC0
1CC0
1840
1800
3900
3F00
3900
3000
7080
7180
FF80
ENDCHAR

STARTCHAR Eacute
ENCODING 201
SWIDTH 700 0
DWIDTH 11 0
BBX 10 15 0 0
BITMAP
01C0
0380
0600
0000
3FC0
1CC0
1840
1800
3900
3F00
3900
3000
3080
7180
FF80
ENDCHAR

STARTCHAR Ecircumflex
ENCODING 202
SWIDTH 700 0
DWIDTH 11 0
BBX 10 15 0 0
BITMAP
0200
0700
0D80
0000
3FC0
1CC0
1840
1800
3900
3F00
3900
3000
3080
7180
FF80
ENDCHAR

STARTCHAR Edieresis
ENCODING 203
SWIDTH 700 0
DWIDTH 11 0
BBX 10 14 0 0
BITMAP
0D80
0D80
0000
3FC0
1CC0
1840
1800
3900
3F00
3900
3000
3080
7180
FF80
ENDCHAR

STARTCHAR Igrave
ENCODING 204
SWIDTH 400 0
DWIDTH 6 0
BBX 7 15 -1 0
BITMAP
70
38
0C
00
3E
1C
1C
18
38
38
30
30
70
70
F8
ENDCHAR

STARTCHAR Iacute
ENCODING 205
SWIDTH 400 0
DWIDTH 6 0
BBX 9 15 -1 0
BITMAP
0380
0700
0C00
0000
3E00
1C00
1C00
3800
3800
3800
3000
7000
7000
7000
F800
ENDCHAR

STARTCHAR Icircumflex
ENCODING 206
SWIDTH 400 0
DWIDTH 6 0
BBX 8 15 -1 0
BITMAP
04
0E
1B
00
3E
1C
1C
38
38
38
30
70
70
70
F8
ENDCHAR

STARTCHAR Idieresis
ENCODING 207
SWIDTH 400 0
DWIDTH 6 0
BBX 8 14 -1 0
BITMAP
1B
1B
00
3E
1C
1C
38
38
38
30
30
70
70
F8
ENDCHAR

STARTCHAR Eth
ENCODING 208
SWIDTH 860 0
DWIDTH 13 0
BBX 12 11 0 0
BITMAP
3FC0
1CE0
1C70
1870
3870
FE70
3870
30E0
30E0
71C0
FF00
ENDCHAR

STARTCHAR Ntilde
ENCODING 209
SWIDTH 800 0
DWIDTH 13 0
BBX 12 14 0 0
BITMAP
0340
0580
0000
3870
1C20
1C20
3E60
2E40
2740
2740
63C0
4380
4180
E180
ENDCHAR

STARTCHAR Ograve
ENCODING 210
SWIDTH 860 0
DWIDTH 12 0
BBX 11 15 0 0
BITMAP
1C00
0E00
0300
0000
0F00
39C0
30C0
70E0
60E0
E0E0
E0C0
E1C0
6180
7380
1E00
ENDCHAR

STARTCHAR Oacute
ENCODING 211
SWIDTH 860 0
DWIDTH 12 0
BBX 11 15 0 0
BITMAP
01C0
0380
0600
0000
0F00
39C0
30C0
70E0
60E0
E0E0
E0C0
E1C0
6180
7380
1E00
ENDCHAR

STARTCHAR Ocircumflex
ENCODING 212
SWIDTH 860 0
DWIDTH 12 0
BBX 11 15 0 0
BITMAP
0200
0700
0D80
0000
0F80
39C0
30C0
70E0
60E0
E0E0
E0C0
E1C0
6180
7380
3E00
ENDCHAR

STARTCHAR Otilde
ENCODING 213
SWIDTH 860 0
DWIDTH 12 0
BBX 11 14 0 0
BITMAP
0680
0B00
0000
0F80
39C0
70C0
70E0
60E0
E0E0
E0C0
E1C0
61C0
7380
3E00
ENDCHAR

STARTCHAR Odieresis
ENCODING 214
SWIDTH 860 0
DWIDTH 12 0
BBX 11 14 0 0
BITMAP
0D80
0D80
0000
0F80
39C0
70C0
70E0
60E0
E0E0
E0C0
E1C0
61C0
7380
3E00
ENDCHAR

STARTCHAR multiply
ENCODING 215
SWIDTH 660 0
DWIDTH 9 0
BBX 9 8 0 1
BITMAP
C180
6300
3600
1C00
1C00
3600
6300
C180
ENDCHAR

STARTCHAR Oslash
ENCODING 216
SWIDTH 860 0
DWIDTH 12 0
BBX 11 13 0 -1
BITMAP
0040
0F80
39C0
71C0
72E0
62E0
E4E0
E8C0
E9C0
71C0
7380
3E00
4000
ENDCHAR

STARTCHAR Ugrave
ENCODING 217
SWIDTH 800 0
DWIDTH 11 0
BBX 11 15 0 0
BITMAP
1C00
0E00
0300
0000
7CE0
3840
3840
30C0
7080
7080
6180
E100
E100
F300
7E00
ENDCHAR

STARTCHAR Uacute
ENCODING 218
SWIDTH 800 0
DWIDTH 11 0
BBX 11 15 0 0
BITMAP
01C0
0380
0600
0000
7CE0
3840
3840
30C0
7080
7080
6180
E100
E100
F300
7E00
ENDCHAR

STARTCHAR Ucircumflex
ENCODING 219
SWIDTH 800 0
DWIDTH 11 0
BBX 11 15 0 0
BITMAP
0200
0700
0D80
0000
7CE0
3840
3840
30C0
7080
7080
6180
E100
E100
F300
7E00
ENDCHAR

STARTCHAR Udieresis
ENCODING 220
SWIDTH 800 0
DWIDTH 11 0
BBX 11 14 0 0
BITMAP
06C0
06C0
0000
7CE0
3840
3840
30C0
7080
7080
6180
E100
E100
F300
7E00
ENDCHAR

STARTCHAR Yacute
ENCODING 221
SWIDTH 740 0
DWIDTH 11 0
BBX 11 15 1 0
BITMAP
01C0
0380
0600
0000
F9E0
70C0
7180
3300
3E00
1C00
1C00
1800
1800
3800
7C00
ENDCHAR

STARTCHAR Thorn
ENCODING 222
SWIDTH 720 0
DWIDTH 11 0
BBX 10 11 0 0
BITMAP
3E00
1C00
1F80
19C0
19C0
31C0
3180
3700
7C00
6000
F800
ENDCHAR

STARTCHAR germandbls
ENCODING 223
SWIDTH 640 0
DWIDTH 11 0
BBX 10 11 0 0
BITMAP
0780
0CC0
1CC0
18C0
3980
3B00
3380
31C0
71C0
7180
F700
ENDCHAR

STARTCHAR agrave
ENCODING 224
SWIDTH 640 0
DWIDTH 10 0
BBX 9 11 0 0
BITMAP
3800
1C00
0600
0000
3B80
7700
E300
E300
C600
EE80
7700
ENDCHAR

STARTCHAR aacute
ENCODING 225
SWIDTH 640 0
DWIDTH 10 0
BBX 9 11 0 0
BITMAP
0380
0700
0C00
0000
3B80
7700
E300
E700
C600
EE80
7700
ENDCHAR

STARTCHAR acircumflex
ENCODING 226
SWIDTH 640 0
DWIDTH 10 0
BBX 9 11 0 0
BITMAP
0400
0E00
1B00
0000
3B80
7700
E300
E300
C600
EE80
7700
ENDCHAR

STARTCHAR atilde
ENCODING 227
SWIDTH 640 0
DWIDTH 10 0
BBX 9 10 0 0
BITMAP
0D00
1600
0000
1980
7700
E300
E300
C600
EE80
7700
ENDCHAR

STARTCHAR adieresis
ENCODING 228
SWIDTH 640 0
DWIDTH 10 0
BBX 9 10 0 0
BITMAP
1B00
1B00
0000
3B80
7700
E300
E300
C600
EF80
7700
ENDCHAR

STARTCHAR aring
ENCODING 229
SWIDTH 640 0
DWIDTH 10 0
BBX 9 12 0 0
BITMAP
0C00
1200
1200
0C00
0000
3B80
7700
E300
E700
C600
EE80
7700
ENDCHAR

STARTCHAR ae
ENCODING 230
SWIDTH 900 0
DWIDTH 14 0
BBX 13 7 0 0
BITMAP
3CF0
67B8
0738
7FF0
E700
EF30
7BE0
ENDCHAR

STARTCHAR ccedilla
ENCODING 231
SWIDTH 540 0
DWIDTH 9 0
BBX 8 10 0 -3
BITMAP
3E
77
E3
C0
C0
E6
7C
10
08
38
ENDCHAR

STARTCHAR egrave
ENCODING 232
SWIDTH 580 0
DWIDTH 9 0
BBX 8 11 0 0
BITMAP
70
38
0C
00
3E
77
E3
FE
C0
E6
7C
ENDCHAR

STARTCHAR eacute
ENCODING 233
SWIDTH 580 0
DWIDTH 9 0
BBX 8 11 0 0
BITMAP
07
0E
18
00
3E
77
E7
FE
C0
E6
7C
ENDCHAR

STARTCHAR ecircumflex
ENCODING 234
SWIDTH 580 0
DWIDTH 9 0
BBX 8 11 0 0
BITMAP
08
1C
36
00
3E
77
E7
FE
C0
E6
7C
ENDCHAR

STARTCHAR edieresis
ENCODING 235
SWIDTH 580 0
DWIDTH 9 0
BBX 8 10 0 0
BITMAP
36
36
00
3E
77
E7
FE
C0
E6
7C
ENDCHAR

STARTCHAR igrave
ENCODING 236
SWIDTH 340 0
DWIDTH 5 0
BBX 5 11 -1 0
BITMAP
E0
70
18
00
38
78
30
30
70
78
70
ENDCHAR

STARTCHAR iacute
ENCODING 237
SWIDTH 340 0
DWIDTH 5 0
BBX 6 11 0 0
BITMAP
1C
38
60
00
70
F0
60
60
E0
F0
E0
ENDCHAR

STARTCHAR icircumflex
ENCODING 238
SWIDTH 340 0
DWIDTH 5 0
BBX 5 11 0 0
BITMAP
20
70
D8
00
70
F0
60
60
E0
F0
E0
ENDCHAR

STARTCHAR idieresis
ENCODING 239
SWIDTH 340 0
DWIDTH 5 0
BBX 5 10 0 0
BITMAP
D8
D8
00
70
F0
60
60
E0
F0
E0
ENDCHAR

STARTCHAR eth
ENCODING 240
SWIDTH 640 0
DWIDTH 9 0
BBX 8 11 0 0
BITMAP
EC
38
4C
06
3E
77
E3
C3
C7
EE
7C
ENDCHAR

STARTCHAR ntilde
ENCODING 241
SWIDTH 680 0
DWIDTH 10 0
BBX 9 10 0 0
BITMAP
0D00
1600
0000
7700
FB80
7380
6300
6300
E780
E700
ENDCHAR

STARTCHAR ograve
ENCODING 242
SWIDTH 640 0
DWIDTH 9 0
BBX 8 11 0 0
BITMAP
70
38
0C
00
3E
77
E3
C3
C7
EE
7C
ENDCHAR

STARTCHAR oacute
ENCODING 243
SWIDTH 640 0
DWIDTH 9 0
BBX 8 11 0 0
BITMAP
07
0E
18
00
3E
77
E3
C3
C7
EE
7C
ENDCHAR

STARTCHAR ocircumflex
ENCODING 244
SWIDTH 640 0
DWIDTH 9 0
BBX 8 11 0 0
BITMAP
08
1C
36
00
3E
77
E3
C3
C7
EE
7C
ENDCHAR

STARTCHAR otilde
ENCODING 245
SWIDTH 640 0
DWIDTH 9 0
BBX 8 10 0 0
BITMAP
1A
2C
00
3E
77
E3
C3
C7
EE
7C
ENDCHAR

STARTCHAR odieresis
ENCODING 246
SWIDTH 640 0
DWIDTH 9 0
BBX 8 10 0 0
BITMAP
36
36
00
3E
77
E3
C3
C7
EE
7C
ENDCHAR

STARTCHAR divide
ENCODING 247
SWIDTH 660 0
DWIDTH 9 0
BBX 8 8 0 1
BITMAP
18
18
00
FF
FF
00
18
18
ENDCHAR

STARTCHAR oslash
ENCODING 248
SWIDTH 640 0
DWIDTH 9 0
BBX 10 8 -1 -1
BITMAP
0F40
3B80
7380
6D80
7380
7700
7C00
8000
ENDCHAR

STARTCHAR ugrave
ENCODING 249
SWIDTH 680 0
DWIDTH 10 0
BBX 9 11 0 0
BITMAP
3800
1C00
0600
0000
7380
F380
6380
E300
C700
EF80
7700
ENDCHAR

STARTCHAR uacute
ENCODING 250
SWIDTH 680 0
DWIDTH 10 0
BBX 9 11 0 0
BITMAP
0380
0700
0C00
0000
7380
F380
6380
E300
C700
EF80
7300
ENDCHAR

STARTCHAR ucircumflex
ENCODING 251
SWIDTH 680 0
DWIDTH 10 0
BBX 9 11 0 0
BITMAP
0400
0E00
1B00
0000
7380
F380
6380
E700
C700
EF80
7700
ENDCHAR

STARTCHAR udieresis
ENCODING 252
SWIDTH 680 0
DWIDTH 10 0
BBX 9 10 0 0
BITMAP
1B00
1B00
0000
7380
F380
6300
E700
C700
EF80
7700
ENDCHAR

STARTCHAR yacute
ENCODING 253
SWIDTH 560 0
DWIDTH 8 0
BBX 8 14 0 -3
BITMAP
07
0E
18
00
66
E6
62
72
74
3C
38
08
70
60
ENDCHAR

STARTCHAR thorn
ENCODING 254
SWIDTH 660 0
DWIDTH 10 0
BBX 10 14 -1 -3
BITMAP
1C00
3C00
1800
1800
1B80
3DC0
39C0
39C0
3980
3380
3600
7000
7000
F800
ENDCHAR

STARTCHAR ydieresis
ENCODING 255
SWIDTH 560 0
DWIDTH 8 0
BBX 7 13 0 -3
BITMAP
36
36
00
66
E6
72
72
36
3C
1C
08
70
60
ENDCHAR
ENDFONT
